<svg xmlns="http://www.w3.org/2000/svg" viewBox="0 0 198 32"><g fill="none" fill-rule="evenodd"><path fill="#000" d="M30.643 0H13.471C6.043 0 0 6.043 0 13.471v17.173C0 31.394.607 32 1.355 32h17.173C25.956 32 32 25.957 32 18.528V1.356C32 .607 31.392 0 30.643 0"/><path fill="#7EBA00" d="M2.712 28.8v-6.742a4.702 4.702 0 014.702-4.702h6.74c.27 0 .49.218.49.488v6.742a4.702 4.702 0 01-4.702 4.702H3.2a.488.488 0 01-.49-.488"/><path fill="#B5B900" d="M16 14.644H7.414c-1.18 0-2.293.28-3.284.773-.1.05-.2-.068-.133-.158a6.708 6.708 0 015.436-2.784h9.604c.27 0 .488.218.488.488v9.604c0 2.236-1.1 4.215-2.784 5.437-.091.065-.208-.034-.16-.134a7.349 7.349 0 00.775-3.284V16c0-.75-.607-1.356-1.356-1.356"/><path fill="#EB962A" d="M24.407 20.547a8.714 8.714 0 01-3.223 6.764c-.091.076-.218-.032-.16-.136a9.343 9.343 0 001.214-4.608V11.118c0-.748-.608-1.356-1.356-1.356H9.432a9.348 9.348 0 00-4.606 1.213c-.103.058-.211-.069-.136-.16a8.716 8.716 0 016.762-3.221h12.467c.269 0 .488.218.488.487v12.466z"/><path fill="#EC4D3B" d="M29.288 18.528c0 3.209-1.419 6.088-3.655 8.06-.091.08-.226-.031-.162-.135a11.371 11.371 0 001.648-5.905V6.237c0-.75-.607-1.355-1.357-1.355h-14.31A11.37 11.37 0 005.548 6.53c-.106.063-.216-.071-.135-.163 1.971-2.236 4.85-3.655 8.06-3.655h15.327c.27 0 .489.219.489.488v15.328z"/><path fill="#000" d="M190.81 12.31c3.811 0 7.192 2.751 7.192 6.992 0 4.212-3.38 6.963-7.192 6.963-3.81 0-7.192-2.75-7.192-6.963 0-4.24 3.381-6.991 7.192-6.991zM49.842 5.883c3.354 0 6.278 1.605 8.054 4.1l-3.038 2.206c-1.117-1.576-2.78-2.55-4.872-2.55-3.583 0-6.19 2.808-6.19 6.333 0 3.525 2.578 6.392 6.161 6.392 2.121 0 3.784-.975 4.901-2.58l3.038 2.236a9.887 9.887 0 01-8.054 4.098c-5.589 0-10.03-4.528-10.03-10.146 0-5.56 4.441-10.089 10.03-10.089zm13.184 6.62v7.193c0 2.046 1.421 2.87 2.871 2.87s2.87-.824 2.87-2.87v-7.192h3.752v7.476c0 3.78-3.098 6.139-6.622 6.139-3.497 0-6.623-2.36-6.623-6.14v-7.475h3.752zm54.06-.314c1.549 0 3.355.573 4.3 1.92v-1.604h3.756V25.86h-3.755v-1.663c-.946 1.319-2.81 1.92-4.3 1.92-3.44 0-6.563-2.665-6.563-6.964 0-4.3 3.124-6.965 6.563-6.965zm26.18-.029c3.812 0 6.936 2.694 6.936 6.793 0 .372-.029.831-.058 1.433h-10.089c.402 1.548 1.663 2.408 3.47 2.408 1.346 0 2.693-.545 3.495-1.49l2.207 2.206c-1.26 1.691-3.61 2.608-5.962 2.608-4.098 0-7.108-2.809-7.108-6.936 0-4.328 3.268-7.022 7.108-7.022zm23.046-5.894c4.47 0 6.446 3.21 6.446 6.447 0 3.238-1.976 6.39-6.446 6.39h-4.07v6.905h-3.982V6.265h8.052zm15.186 6.046c.716 0 1.519.114 2.12.43l-.86 3.581a3.894 3.894 0 00-1.919-.487c-1.92 0-3.238 1.777-3.238 5.588v4.584h-3.753V12.655h3.725v2.836c.745-2.235 2.263-3.18 3.925-3.18zM78.446 6.11V25.86h-3.755V6.111h3.755zm7.966 1.491v4.901h2.837v2.895h-2.837V25.86h-3.755V15.398H80.22v-2.895h2.437V7.602h3.755zm8.308 4.902V25.86h-3.755V12.504h3.755zm5.6 0l3.269 8.54 3.21-8.54h4.099l-5.646 13.356h-3.354l-5.646-13.356h4.069zm32.609-4.902v4.901h2.837v2.895h-2.837V25.86h-3.755V15.398h-2.436v-2.895h2.436V7.602h3.755zm57.881 8.205c-1.862 0-3.38 1.403-3.38 3.495 0 2.063 1.518 3.467 3.38 3.467 1.863 0 3.381-1.404 3.381-3.467 0-2.092-1.518-3.495-3.38-3.495zm-73.006-.093c-1.892 0-3.468 1.46-3.468 3.439a3.461 3.461 0 003.468 3.468c1.834 0 3.468-1.433 3.468-3.468 0-2.063-1.72-3.44-3.468-3.44zm25.52-.287c-1.52 0-2.867.716-3.269 2.522h6.392c-.115-1.577-1.433-2.522-3.124-2.522zm22.844-5.638h-3.925v5.817h3.868c1.92 0 2.636-1.49 2.636-2.894 0-1.433-.716-2.923-2.579-2.923zm-73.34-3.46c1.319 0 2.379.974 2.379 2.236 0 1.26-1.06 2.264-2.379 2.264-1.29 0-2.379-1.004-2.379-2.264 0-1.262 1.089-2.236 2.379-2.236z"/></g></svg>
