<svg xmlns="http://www.w3.org/2000/svg" viewBox="0 0 191 32">
  <g fill="none" fill-rule="evenodd">
    <path fill="#000" d="M30.6434,0.0001 L13.4714,0.0001 C6.0434,0.0001 -0.0006,6.0431 -0.0006,13.4711 L-0.0006,30.6441 C-0.0006,31.3931 0.6074,32.0001 1.3554,32.0001 L18.5284,32.0001 C25.9564,32.0001 31.9994,25.9571 31.9994,18.5281 L31.9994,1.3561 C31.9994,0.6071 31.3924,0.0001 30.6434,0.0001"/>
    <path fill="#7EBA00" d="M2.7118,28.7999 L2.7118,22.0579 C2.7118,19.4609 4.8168,17.3559 7.4138,17.3559 L14.1548,17.3559 C14.4248,17.3559 14.6438,17.5739 14.6438,17.8439 L14.6438,24.5859 C14.6438,27.1829 12.5388,29.2879 9.9418,29.2879 L3.2008,29.2879 C2.9308,29.2879 2.7118,29.0699 2.7118,28.7999"/>
    <path fill="#B5B900" d="M15.9999,14.6436 L7.4139,14.6436 C6.2339,14.6436 5.1209,14.9246 4.1299,15.4166 C4.0309,15.4666 3.9309,15.3486 3.9969,15.2586 C5.2189,13.5746 7.1979,12.4746 9.4329,12.4746 L19.0369,12.4746 C19.3069,12.4746 19.5249,12.6926 19.5249,12.9626 L19.5249,22.5666 C19.5249,24.8026 18.4249,26.7816 16.7409,28.0036 C16.6499,28.0686 16.5329,27.9696 16.5819,27.8696 C17.0749,26.8786 17.3559,25.7656 17.3559,24.5856 L17.3559,15.9996 C17.3559,15.2506 16.7489,14.6436 15.9999,14.6436"/>
    <path fill="#EB962A" d="M24.4066,20.5475 C24.4066,23.2745 23.1476,25.7085 21.1836,27.3115 C21.0926,27.3865 20.9656,27.2785 21.0236,27.1755 C21.7936,25.8115 22.2376,24.2415 22.2376,22.5675 L22.2376,11.1185 C22.2376,10.3695 21.6296,9.7625 20.8816,9.7625 L9.4326,9.7625 C7.7586,9.7625 6.1896,10.2055 4.8256,10.9745 C4.7226,11.0325 4.6146,10.9065 4.6896,10.8145 C6.2926,8.8525 8.7256,7.5935 11.4516,7.5935 L23.9186,7.5935 C24.1876,7.5935 24.4066,7.8125 24.4066,8.0815 L24.4066,20.5475 Z"/>
    <path fill="#EC4D3B" d="M29.2875,18.5279 C29.2875,21.7369 27.8695,24.6159 25.6325,26.5879 C25.5415,26.6689 25.4075,26.5569 25.4705,26.4529 C26.5145,24.7269 27.1185,22.7079 27.1185,20.5479 L27.1185,6.2369 C27.1185,5.4879 26.5115,4.8819 25.7625,4.8819 L11.4525,4.8819 C9.2915,4.8819 7.2715,5.4859 5.5465,6.5299 C5.4415,6.5929 5.3305,6.4589 5.4115,6.3669 C7.3835,4.1309 10.2615,2.7119 13.4715,2.7119 L28.7995,2.7119 C29.0685,2.7119 29.2875,2.9309 29.2875,3.1999 L29.2875,18.5279 Z"/>
    <path fill="#000" d="M49.8424,5.8823 C53.1964,5.8823 56.1204,7.4873 57.8964,9.9813 L54.8584,12.1883 C53.7414,10.6123 52.0784,9.6373 49.9864,9.6373 C46.4034,9.6373 43.7954,12.4463 43.7954,15.9713 C43.7954,19.4963 46.3744,22.3633 49.9574,22.3633 C52.0784,22.3633 53.7414,21.3883 54.8584,19.7833 L57.8964,22.0193 C56.1204,24.4843 53.1964,26.1173 49.8424,26.1173 C44.2534,26.1173 39.8114,21.5893 39.8114,15.9713 C39.8114,10.4113 44.2534,5.8823 49.8424,5.8823 Z M63.0263,12.5026 L63.0263,19.6946 C63.0263,21.7406 64.4473,22.5646 65.8973,22.5646 C67.3463,22.5646 68.7673,21.7406 68.7673,19.6946 L68.7673,12.5026 L72.5193,12.5026 L72.5193,19.9786 C72.5193,23.7586 69.4213,26.1176 65.8973,26.1176 C62.4003,26.1176 59.2743,23.7586 59.2743,19.9786 L59.2743,12.5026 L63.0263,12.5026 Z M117.0869,12.1879 C118.6349,12.1879 120.4409,12.7609 121.3869,14.1089 L121.3869,12.5039 L125.1419,12.5039 L125.1419,25.8599 L121.3869,25.8599 L121.3869,24.1969 C120.4409,25.5159 118.5779,26.1179 117.0869,26.1179 C113.6479,26.1179 110.5239,23.4519 110.5239,19.1529 C110.5239,14.8539 113.6479,12.1879 117.0869,12.1879 Z M143.2651,12.1593 C147.0781,12.1593 150.2021,14.8533 150.2021,18.9523 C150.2021,19.3243 150.1731,19.7833 150.1441,20.3853 L140.0551,20.3853 C140.4571,21.9333 141.7181,22.7933 143.5241,22.7933 C144.8711,22.7933 146.2181,22.2483 147.0201,21.3023 L149.2271,23.5093 C147.9661,25.2003 145.6161,26.1173 143.2651,26.1173 C139.1671,26.1173 136.1571,23.3083 136.1571,19.1813 C136.1571,14.8533 139.4251,12.1593 143.2651,12.1593 Z M154.3024,6.1114 L157.5694,18.3794 L160.8944,6.7994 L164.1904,6.7994 L167.5154,18.3794 L170.7834,6.1114 L175.2254,6.1114 L169.3504,25.8604 L165.9964,25.8604 L162.5574,13.5064 L159.0884,25.8604 L155.7354,25.8604 L149.8594,6.1114 L154.3024,6.1114 Z M78.446,6.111 L78.446,25.86 L74.691,25.86 L74.691,6.111 L78.446,6.111 Z M86.4124,7.602 L86.4124,12.503 L89.2494,12.503 L89.2494,15.398 L86.4124,15.398 L86.4124,25.86 L82.6574,25.86 L82.6574,15.398 L80.2204,15.398 L80.2204,12.503 L82.6574,12.503 L82.6574,7.602 L86.4124,7.602 Z M94.72,12.504 L94.72,25.86 L90.965,25.86 L90.965,12.504 L94.72,12.504 Z M100.3208,12.5035 L103.5888,21.0445 L106.7988,12.5035 L110.8978,12.5035 L105.2518,25.8595 L101.8978,25.8595 L96.2518,12.5035 L100.3208,12.5035 Z M132.929,7.602 L132.929,12.503 L135.766,12.503 L135.766,15.398 L132.929,15.398 L132.929,25.86 L129.174,25.86 L129.174,15.398 L126.738,15.398 L126.738,12.503 L129.174,12.503 L129.174,7.602 L132.929,7.602 Z M183.952,6.1116 C188.424,6.1116 190.402,9.3216 190.402,12.5606 C190.402,15.7996 188.424,18.9526 183.952,18.9526 L179.883,18.9526 L179.883,25.8596 L175.899,25.8596 L175.899,6.1116 L183.952,6.1116 Z M117.8039,15.7139 C115.9119,15.7139 114.3359,17.1749 114.3359,19.1529 C114.3359,21.1019 115.9119,22.6209 117.8039,22.6209 C119.6379,22.6209 121.2719,21.1879 121.2719,19.1529 C121.2719,17.0899 119.5519,15.7139 117.8039,15.7139 Z M143.3231,15.4273 C141.8041,15.4273 140.4571,16.1433 140.0551,17.9493 L146.4471,17.9493 C146.3321,16.3723 145.0141,15.4273 143.3231,15.4273 Z M183.809,9.6366 L179.883,9.6366 L179.883,15.4556 L183.752,15.4556 C185.673,15.4556 186.389,13.9646 186.389,12.5606 C186.389,11.1276 185.673,9.6366 183.809,9.6366 Z M92.828,6.329 C94.147,6.329 95.207,7.303 95.207,8.565 C95.207,9.825 94.147,10.829 92.828,10.829 C91.538,10.829 90.449,9.825 90.449,8.565 C90.449,7.303 91.538,6.329 92.828,6.329 Z"/>
  </g>
</svg>
